:SAMPLES-PER-SECOND 30
:FULLY-SPECIFIED
:DEGREES
289
root  8.191444367 39.47088887 2.446577868 3.779998779 -46.88299561 4.031997681
lowerback  12.55609989 2.874039888 -4.853499889
upperback  4.61743021 3.083179951 -0.8832920194
thorax  -2.387150049 1.465160012 1.362759948
lowerneck  -3.266190052 7.550990105 -2.547070026
upperneck  1.66497004 10.17310047 0.3042879999
head  0.9017429948 5.071589947 0.6700609922
lclavicle  0 -9.442270133e-015 7.951389973e-016
lhumerus  -1.589519978 -9.585289955 82.04519653
lradius  2.075144164e-031 -2.857030055e-031 125.9919968
lwrist  -1.412450015e-030 -0 15.40260029
lhand  -1.496451383e-031 -27.76390076 20.11240005
lfingers  90 7.125020027 -90
lthumb  89.89689403 5.08795885 91.16245106
rclavicle  0 -9.442270133e-015 7.951389973e-016
rhumerus  0.5500810146 13.76189995 -85.09609985
rradius  -2.171305565e-031 2.784650101e-031 127.9449997
rwrist  1.412450015e-030 1.324171889e-031 -26.30509949
rhand  -7.920061211e-032 -33.2840004 9.303460121
rfingers  -90 -7.125020027 -90
rthumb  -92.93752616 -24.25625642 -97.11982154
rfemur  -21.87730026 6.974720001 6.170489788
rtibia  -0 0 60.02590179
rfoot  -0 -18.16710091 -10.08549976
rtoes  5.373923086 19.29304026 -105.8922705
lfemur  -26.03980064 -1.408820033 -3.24822998
ltibia  -0 0 51.02009964
lfoot  4.436695474e-032 -5.809760094 -0.8958619833
ltoes  -4.250644065 -19.5611806 -102.515957
290
root  8.232266884 39.36222106 2.538533286 2.981994629 -47.78999329 4.67300415
lowerback  12.69579983 2.732789993 -4.772689819
upperback  4.595650196 2.899070024 -0.7967900038
thorax  -2.475409985 1.375219941 1.429309964
lowerneck  -2.960589886 7.88572979 -2.204940081
upperneck  1.799520016 10.6086998 -0.1714709997
head  0.9294620156 5.283279896 0.4703249931
lclavicle  0 -9.442270133e-015 7.951389973e-016
lhumerus  -2.064090014 -8.795249939 81.47699738
lradius  2.136976118e-031 -2.811081128e-031 127.2419968
lwrist  -7.062250077e-031 -1.765562519e-031 14.86299992
lhand  -1.496451383e-031 -27.76390076 20.11240005
lfingers  90 7.125020027 -90
lthumb  89.89689403 5.08795885 91.16245106
rclavicle  0 -9.442270133e-015 7.951389973e-016
rhumerus  0.6049469709 14.76519966 -85.03890228
rradius  -2.182127163e-031 2.776178143e-031 128.1679993
rwrist  7.062250077e-031 2.206953149e-031 -24.9564991
rhand  -7.920061211e-032 -33.2840004 9.303460121
rfingers  -90 -7.125020027 -90
rthumb  -92.93752616 -24.25625642 -97.11982154
rfemur  -21.55270004 7.138000011 6.07656002
rtibia  -0 0 60.25460052
rfoot  -0 -17.01180077 -9.116550446
rtoes  5.373923086 19.29304026 -105.8922705
lfemur  -24.57859993 -1.002329946 -3.872849941
ltibia  -0 0 52.0503006
lfoot  4.715720615e-032 -6.013000011 0.2156189978
ltoes  -4.250644065 -19.5611806 -102.515957
291
root  8.247044331 39.23511055 2.636755545 1.962005615 -48.64300537 5.520004272
lowerback  12.80720043 2.675760031 -4.840229988
upperback  4.52628994 2.806420088 -0.7894480228
thorax  -2.606090069 1.332110047 1.482820034
lowerneck  -2.529170036 8.165300369 -1.703269958
upperneck  1.983049989 10.96339989 -0.5746579766
head  0.9610059857 5.456749916 0.2642920017
lclavicle  0 -9.442270133e-015 7.951389973e-016
lhumerus  -2.221290112 -8.407649994 80.57180023
lradius  2.194702284e-031 -2.766247624e-031 128.4279938
lwrist  -7.062250077e-031 -0 14.61190033
lhand  -1.496451383e-031 -27.76390076 20.11240005
lfingers  90 7.125020027 -90
lthumb  89.89689403 5.08795885 91.16245106
rclavicle  0 -9.442270133e-015 7.951389973e-016
rhumerus  0.4205670059 15.5326004 -85.03350067
rradius  -2.198466241e-031 2.763257177e-031 128.5059967
rwrist  7.062250077e-031 2.648343779e-031 -23.71969986
rhand  -7.920061211e-032 -33.2840004 9.303460121
rfingers  -90 -7.125020027 -90
rthumb  -92.93752616 -24.25625642 -97.11982154
rfemur  -20.90040016 7.237969875 5.895269871
rtibia  -0 0 60.14450073
rfoot  -0 -19.82550049 -9.394029617
rtoes  5.373923086 19.29304026 -105.8922705
lfemur  -22.93199921 -0.7687569857 -4.562570095
ltibia  -0 0 52.77750015
lfoot  4.440892178e-032 -6.319620132 1.488809943
ltoes  -4.250644065 -19.5611806 -102.515957
292
root  8.223244524 39.10533274 2.735977849 0.8959960938 -49.56300354 6.505996704
lowerback  12.72480011 2.715919971 -5.134530067
upperback  4.428860188 2.82604003 -0.8007739782
thorax  -2.676959991 1.343989968 1.633299947
lowerneck  -2.051189899 8.321709633 -1.239220023
upperneck  2.059920073 11.15639973 -0.9329069853
head  0.9511970282 5.552100182 0.07086119801
lclavicle  0 -9.442270133e-015 7.951389973e-016
lhumerus  -2.252269983 -8.072090149 79.67669678
lradius  2.246499825e-031 -2.724349936e-031 129.5090027
lwrist  -7.062250077e-031 -0 14.3281002
lhand  -1.496451383e-031 -27.76390076 20.11240005
lfingers  90 7.125020027 -90
lthumb  89.89689403 5.08795885 91.16245106
rclavicle  0 -9.442270133e-015 7.951389973e-016
rhumerus  0.1814019978 16.1154995 -84.99259949
rradius  -2.219621615e-031 2.74629276e-031 128.9459991
rwrist  0 1.765562519e-031 -22.75399971
rhand  -7.920061211e-032 -33.2840004 9.303460121
rfingers  -90 -7.125020027 -90
rthumb  -92.93752616 -24.25625642 -97.11982154
rfemur  -20.1548996 7.420879841 5.619569778
rtibia  -0 0 59.70429993
rfoot  -0 -22.14189911 -13.5383997
rtoes  5.373923086 19.29304026 -105.8922705
lfemur  -21.20949936 -0.3392640054 -5.273059845
ltibia  -0 0 53.15050125
lfoot  4.445110389e-032 -6.792920113 2.42685008
ltoes  -4.250644065 -19.5611806 -102.515957
